# xmcd
#
# Track frame offsets: 
#        150
#        10540
#        20470
#        33230
#        44300
#        57077
#        68400
#        82010
#        91565
#        100795
#        112692
#        133425
#        142922
#        157600
#        170655
#        184107
#        192345
#        209137
#        218445
#        232525
#        236287
#        244882
#        252762
#
# Disc length: 3571 seconds
#
# Revision: 3
# Processed by: cddbd v1.5.1PL2 Copyright (c) Steve Scherf et al.
# Submitted via: ExactAudioCopy v0.95b3
#
DISCID=170df117
DTITLE=Bob Wills - The Longhorn Recordings
DYEAR=1993
DGENRE=Western Swing
TTITLE0=Sooner or Later (You'll Fall)
TTITLE1=Buffalo Twist
TTITLE2=All Night Long
TTITLE3=You Can't Break a Heart
TTITLE4=If He's Movin' In
TTITLE5=Let's Get It Over and Done With
TTITLE6=Faded Love
TTITLE7=Wills Junction
TTITLE8=(Old) San Antonio Rose
TTITLE9=Betty's Waltz
TTITLE10=You'll Never Walk Out of My Heart
TTITLE11=Big Taters in the Sandy Land
TTITLE12=Mayflower Waltz
TTITLE13=Billy in the Low Ground
TTITLE14=Beaumont Rag
TTITLE15=Faded Love
TTITLE16=Dian Waltz
TTITLE17=Done Gone
TTITLE18=Put Your Little Foot
TTITLE19=Bob's First Fiddle Tune
TTITLE20=Bob's Schottische
TTITLE21=Gone Indian
TTITLE22=No Disappointments in Heaven
EXTD=Recorded Dallas US-TX and Balch Springs US-TX, 1964.Q1/1965.Q1.\n
EXTD=Most tracks originally released on Longhorn Records 45RPMs and LP
EXTD=s, 1964/1965.\nCD: Bear Family Records BCD 15689 AH (1993), UPC 7
EXTD=90051156893, EAN 4000127156891.
EXTT0=
EXTT1=
EXTT2=
EXTT3=
EXTT4=
EXTT5=
EXTT6=
EXTT7=
EXTT8=
EXTT9=
EXTT10=
EXTT11=
EXTT12=
EXTT13=
EXTT14=
EXTT15=
EXTT16=
EXTT17=
EXTT18=
EXTT19=
EXTT20=
EXTT21=
EXTT22=
PLAYORDER=
